# Blender v2.80 (sub 75) OBJ File: ''
# www.blender.org
mtllib cube.mtl
o cube
v -1.000000 -1.000000 -1.000000
v 1.000000 -1.000000 1.000000
v -1.000000 -1.000000 1.000000
v 1.000000 1.000000 1.000000
v -0.999999 1.000000 -1.000001
v -1.000000 1.000000 0.999999
v 1.000000 -1.000000 -1.000000
v 1.000000 1.000000 -1.000000
vt 0.250043 0.500000
vt 0.500000 0.250043
vt 0.500000 0.500000
vt 0.749957 0.250043
vt 0.999913 0.500000
vt 0.749957 0.500000
vt 0.000087 0.749956
vt 0.250043 0.749957
vt 0.000087 0.500000
vt 0.250043 0.250043
vt 0.000087 0.000087
vt 0.250043 0.000087
vt 0.999913 0.250043
vt 0.000087 0.250043
vn 0.0000 -1.0000 0.0000
vn -0.0000 1.0000 0.0000
vn -1.0000 0.0000 0.0000
vn 0.0000 -0.0000 -1.0000
vn 1.0000 0.0000 0.0000
vn -0.0000 0.0000 1.0000
usemtl Default_OBJ
s off
f 1/1/1 2/2/1 3/3/1
f 4/4/2 5/5/2 6/6/2
f 6/7/3 1/1/3 3/8/3
f 5/9/4 7/10/4 1/1/4
f 7/10/5 4/11/5 2/12/5
f 3/3/6 4/4/6 6/6/6
f 1/1/1 7/10/1 2/2/1
f 4/4/2 8/13/2 5/5/2
f 6/7/3 5/9/3 1/1/3
f 5/9/4 8/14/4 7/10/4
f 7/10/5 8/14/5 4/11/5
f 3/3/6 2/2/6 4/4/6
